<mxfile host="app.diagrams.net" modified="2024-06-25T19:08:28.861Z" agent="Mozilla/5.0 (Macintosh; Intel Mac OS X 10.15; rv:128.0) Gecko/20100101 Firefox/128.0" etag="R3ebtiEviruY1Jvmc2e8" version="24.6.0" type="github">
  <diagram name="Page-1" id="mbVQlB_5lh4jTQNmV8JY">
    <mxGraphModel dx="1434" dy="794" grid="1" gridSize="10" guides="1" tooltips="1" connect="1" arrows="1" fold="1" page="1" pageScale="1" pageWidth="850" pageHeight="1100" math="0" shadow="0">
      <root>
        <mxCell id="0" />
        <mxCell id="1" parent="0" />
        <mxCell id="wu20T2DJF-u065mbQEqq-53" value="" style="whiteSpace=wrap;html=1;" vertex="1" parent="1">
          <mxGeometry x="160" y="180" width="400" height="680" as="geometry" />
        </mxCell>
        <mxCell id="wu20T2DJF-u065mbQEqq-4" style="edgeStyle=orthogonalEdgeStyle;rounded=0;orthogonalLoop=1;jettySize=auto;html=1;entryX=0.5;entryY=0;entryDx=0;entryDy=0;" edge="1" parent="1" source="wu20T2DJF-u065mbQEqq-1" target="wu20T2DJF-u065mbQEqq-6">
          <mxGeometry relative="1" as="geometry">
            <mxPoint x="360" y="80" as="targetPoint" />
          </mxGeometry>
        </mxCell>
        <mxCell id="wu20T2DJF-u065mbQEqq-1" value="&lt;div&gt;START&lt;/div&gt;" style="ellipse;whiteSpace=wrap;html=1;" vertex="1" parent="1">
          <mxGeometry x="320" y="80" width="80" height="80" as="geometry" />
        </mxCell>
        <mxCell id="wu20T2DJF-u065mbQEqq-2" value="&lt;div&gt;COMPLETE&lt;/div&gt;" style="ellipse;whiteSpace=wrap;html=1;" vertex="1" parent="1">
          <mxGeometry x="800" y="840" width="80" height="80" as="geometry" />
        </mxCell>
        <mxCell id="wu20T2DJF-u065mbQEqq-7" style="edgeStyle=orthogonalEdgeStyle;rounded=0;orthogonalLoop=1;jettySize=auto;html=1;exitX=0;exitY=0.5;exitDx=0;exitDy=0;" edge="1" parent="1" source="wu20T2DJF-u065mbQEqq-6">
          <mxGeometry relative="1" as="geometry">
            <mxPoint x="280" y="240" as="targetPoint" />
          </mxGeometry>
        </mxCell>
        <mxCell id="wu20T2DJF-u065mbQEqq-9" style="edgeStyle=orthogonalEdgeStyle;rounded=0;orthogonalLoop=1;jettySize=auto;html=1;exitX=1;exitY=0.5;exitDx=0;exitDy=0;" edge="1" parent="1" source="wu20T2DJF-u065mbQEqq-6" target="wu20T2DJF-u065mbQEqq-10">
          <mxGeometry relative="1" as="geometry">
            <mxPoint x="440" y="240" as="targetPoint" />
          </mxGeometry>
        </mxCell>
        <mxCell id="wu20T2DJF-u065mbQEqq-6" value="&lt;div&gt;Has I-9&lt;/div&gt;" style="rhombus;whiteSpace=wrap;html=1;" vertex="1" parent="1">
          <mxGeometry x="320" y="200" width="80" height="80" as="geometry" />
        </mxCell>
        <mxCell id="wu20T2DJF-u065mbQEqq-18" style="edgeStyle=orthogonalEdgeStyle;rounded=0;orthogonalLoop=1;jettySize=auto;html=1;entryX=0.5;entryY=0;entryDx=0;entryDy=0;" edge="1" parent="1" source="wu20T2DJF-u065mbQEqq-8" target="wu20T2DJF-u065mbQEqq-11">
          <mxGeometry relative="1" as="geometry" />
        </mxCell>
        <mxCell id="wu20T2DJF-u065mbQEqq-8" value="Yes" style="text;html=1;align=center;verticalAlign=middle;resizable=0;points=[];autosize=1;strokeColor=none;fillColor=none;" vertex="1" parent="1">
          <mxGeometry x="240" y="225" width="40" height="30" as="geometry" />
        </mxCell>
        <mxCell id="wu20T2DJF-u065mbQEqq-17" style="edgeStyle=orthogonalEdgeStyle;rounded=0;orthogonalLoop=1;jettySize=auto;html=1;entryX=0.5;entryY=0;entryDx=0;entryDy=0;" edge="1" parent="1" source="wu20T2DJF-u065mbQEqq-10" target="wu20T2DJF-u065mbQEqq-16">
          <mxGeometry relative="1" as="geometry">
            <mxPoint x="530" y="400" as="targetPoint" />
            <Array as="points">
              <mxPoint x="460" y="340" />
              <mxPoint x="360" y="340" />
            </Array>
          </mxGeometry>
        </mxCell>
        <mxCell id="wu20T2DJF-u065mbQEqq-10" value="&lt;div&gt;No&lt;/div&gt;" style="text;html=1;align=center;verticalAlign=middle;resizable=0;points=[];autosize=1;strokeColor=none;fillColor=none;" vertex="1" parent="1">
          <mxGeometry x="440" y="225" width="40" height="30" as="geometry" />
        </mxCell>
        <mxCell id="wu20T2DJF-u065mbQEqq-19" style="edgeStyle=orthogonalEdgeStyle;rounded=0;orthogonalLoop=1;jettySize=auto;html=1;entryX=0.5;entryY=0;entryDx=0;entryDy=0;" edge="1" parent="1" source="wu20T2DJF-u065mbQEqq-11" target="wu20T2DJF-u065mbQEqq-16">
          <mxGeometry relative="1" as="geometry">
            <Array as="points">
              <mxPoint x="260" y="340" />
              <mxPoint x="360" y="340" />
            </Array>
          </mxGeometry>
        </mxCell>
        <mxCell id="wu20T2DJF-u065mbQEqq-11" value="&lt;div&gt;Worker Completes I-9&lt;/div&gt;" style="whiteSpace=wrap;html=1;" vertex="1" parent="1">
          <mxGeometry x="180" y="280" width="160" height="40" as="geometry" />
        </mxCell>
        <mxCell id="wu20T2DJF-u065mbQEqq-31" style="edgeStyle=orthogonalEdgeStyle;rounded=0;orthogonalLoop=1;jettySize=auto;html=1;" edge="1" parent="1" source="wu20T2DJF-u065mbQEqq-12" target="wu20T2DJF-u065mbQEqq-30">
          <mxGeometry relative="1" as="geometry">
            <Array as="points">
              <mxPoint x="260" y="500" />
              <mxPoint x="360" y="500" />
            </Array>
          </mxGeometry>
        </mxCell>
        <mxCell id="wu20T2DJF-u065mbQEqq-12" value="Worker Completes W-4" style="whiteSpace=wrap;html=1;" vertex="1" parent="1">
          <mxGeometry x="180" y="440" width="160" height="40" as="geometry" />
        </mxCell>
        <mxCell id="wu20T2DJF-u065mbQEqq-24" style="edgeStyle=orthogonalEdgeStyle;rounded=0;orthogonalLoop=1;jettySize=auto;html=1;" edge="1" parent="1" source="wu20T2DJF-u065mbQEqq-16" target="wu20T2DJF-u065mbQEqq-22">
          <mxGeometry relative="1" as="geometry" />
        </mxCell>
        <mxCell id="wu20T2DJF-u065mbQEqq-16" value="&lt;div&gt;Has W-4&lt;br&gt;&lt;/div&gt;" style="rhombus;whiteSpace=wrap;html=1;" vertex="1" parent="1">
          <mxGeometry x="320" y="360" width="80" height="80" as="geometry" />
        </mxCell>
        <mxCell id="wu20T2DJF-u065mbQEqq-21" style="edgeStyle=orthogonalEdgeStyle;rounded=0;orthogonalLoop=1;jettySize=auto;html=1;exitX=1;exitY=0.5;exitDx=0;exitDy=0;" edge="1" parent="1" target="wu20T2DJF-u065mbQEqq-23" source="wu20T2DJF-u065mbQEqq-16">
          <mxGeometry relative="1" as="geometry">
            <mxPoint x="450" y="425" as="targetPoint" />
            <mxPoint x="410" y="425" as="sourcePoint" />
          </mxGeometry>
        </mxCell>
        <mxCell id="wu20T2DJF-u065mbQEqq-26" style="edgeStyle=orthogonalEdgeStyle;rounded=0;orthogonalLoop=1;jettySize=auto;html=1;entryX=0.5;entryY=0;entryDx=0;entryDy=0;" edge="1" parent="1" source="wu20T2DJF-u065mbQEqq-22" target="wu20T2DJF-u065mbQEqq-12">
          <mxGeometry relative="1" as="geometry" />
        </mxCell>
        <mxCell id="wu20T2DJF-u065mbQEqq-22" value="Yes" style="text;html=1;align=center;verticalAlign=middle;resizable=0;points=[];autosize=1;strokeColor=none;fillColor=none;" vertex="1" parent="1">
          <mxGeometry x="240" y="385" width="40" height="30" as="geometry" />
        </mxCell>
        <mxCell id="wu20T2DJF-u065mbQEqq-32" style="edgeStyle=orthogonalEdgeStyle;rounded=0;orthogonalLoop=1;jettySize=auto;html=1;entryX=0.5;entryY=0;entryDx=0;entryDy=0;" edge="1" parent="1" source="wu20T2DJF-u065mbQEqq-23" target="wu20T2DJF-u065mbQEqq-30">
          <mxGeometry relative="1" as="geometry">
            <Array as="points">
              <mxPoint x="460" y="500" />
              <mxPoint x="360" y="500" />
            </Array>
          </mxGeometry>
        </mxCell>
        <mxCell id="wu20T2DJF-u065mbQEqq-23" value="&lt;div&gt;No&lt;/div&gt;" style="text;html=1;align=center;verticalAlign=middle;resizable=0;points=[];autosize=1;strokeColor=none;fillColor=none;" vertex="1" parent="1">
          <mxGeometry x="440" y="385" width="40" height="30" as="geometry" />
        </mxCell>
        <mxCell id="wu20T2DJF-u065mbQEqq-29" value="&lt;div&gt;Worker Workflow&lt;/div&gt;" style="text;html=1;align=center;verticalAlign=middle;resizable=0;points=[];autosize=1;strokeColor=none;fillColor=none;fontStyle=1" vertex="1" parent="1">
          <mxGeometry x="160" y="180" width="110" height="30" as="geometry" />
        </mxCell>
        <mxCell id="wu20T2DJF-u065mbQEqq-35" style="edgeStyle=orthogonalEdgeStyle;rounded=0;orthogonalLoop=1;jettySize=auto;html=1;" edge="1" parent="1" source="wu20T2DJF-u065mbQEqq-30" target="wu20T2DJF-u065mbQEqq-34">
          <mxGeometry relative="1" as="geometry" />
        </mxCell>
        <mxCell id="wu20T2DJF-u065mbQEqq-36" style="edgeStyle=orthogonalEdgeStyle;rounded=0;orthogonalLoop=1;jettySize=auto;html=1;" edge="1" parent="1" source="wu20T2DJF-u065mbQEqq-30" target="wu20T2DJF-u065mbQEqq-33">
          <mxGeometry relative="1" as="geometry" />
        </mxCell>
        <mxCell id="wu20T2DJF-u065mbQEqq-30" value="&lt;div&gt;Has Anvil Workflow&lt;br&gt;&lt;/div&gt;" style="rhombus;whiteSpace=wrap;html=1;" vertex="1" parent="1">
          <mxGeometry x="320" y="520" width="80" height="80" as="geometry" />
        </mxCell>
        <mxCell id="wu20T2DJF-u065mbQEqq-38" style="edgeStyle=orthogonalEdgeStyle;rounded=0;orthogonalLoop=1;jettySize=auto;html=1;entryX=0.5;entryY=0;entryDx=0;entryDy=0;" edge="1" parent="1" source="wu20T2DJF-u065mbQEqq-33" target="wu20T2DJF-u065mbQEqq-37">
          <mxGeometry relative="1" as="geometry" />
        </mxCell>
        <mxCell id="wu20T2DJF-u065mbQEqq-33" value="&lt;div&gt;Yes&lt;/div&gt;" style="text;html=1;align=center;verticalAlign=middle;resizable=0;points=[];autosize=1;strokeColor=none;fillColor=none;" vertex="1" parent="1">
          <mxGeometry x="240" y="545" width="40" height="30" as="geometry" />
        </mxCell>
        <mxCell id="wu20T2DJF-u065mbQEqq-42" style="edgeStyle=orthogonalEdgeStyle;rounded=0;orthogonalLoop=1;jettySize=auto;html=1;entryX=0.5;entryY=0;entryDx=0;entryDy=0;" edge="1" parent="1" source="wu20T2DJF-u065mbQEqq-34" target="wu20T2DJF-u065mbQEqq-39">
          <mxGeometry relative="1" as="geometry">
            <Array as="points">
              <mxPoint x="460" y="660" />
              <mxPoint x="360" y="660" />
            </Array>
          </mxGeometry>
        </mxCell>
        <mxCell id="wu20T2DJF-u065mbQEqq-34" value="&lt;div&gt;No&lt;/div&gt;" style="text;html=1;align=center;verticalAlign=middle;resizable=0;points=[];autosize=1;strokeColor=none;fillColor=none;" vertex="1" parent="1">
          <mxGeometry x="440" y="545" width="40" height="30" as="geometry" />
        </mxCell>
        <mxCell id="wu20T2DJF-u065mbQEqq-40" style="edgeStyle=orthogonalEdgeStyle;rounded=0;orthogonalLoop=1;jettySize=auto;html=1;entryX=0.5;entryY=0;entryDx=0;entryDy=0;" edge="1" parent="1" source="wu20T2DJF-u065mbQEqq-37" target="wu20T2DJF-u065mbQEqq-39">
          <mxGeometry relative="1" as="geometry" />
        </mxCell>
        <mxCell id="wu20T2DJF-u065mbQEqq-37" value="Worker Signs Anvil" style="whiteSpace=wrap;html=1;" vertex="1" parent="1">
          <mxGeometry x="180" y="600" width="160" height="40" as="geometry" />
        </mxCell>
        <mxCell id="wu20T2DJF-u065mbQEqq-46" style="edgeStyle=orthogonalEdgeStyle;rounded=0;orthogonalLoop=1;jettySize=auto;html=1;" edge="1" parent="1" source="wu20T2DJF-u065mbQEqq-39" target="wu20T2DJF-u065mbQEqq-44">
          <mxGeometry relative="1" as="geometry" />
        </mxCell>
        <mxCell id="wu20T2DJF-u065mbQEqq-47" style="edgeStyle=orthogonalEdgeStyle;rounded=0;orthogonalLoop=1;jettySize=auto;html=1;" edge="1" parent="1" source="wu20T2DJF-u065mbQEqq-39" target="wu20T2DJF-u065mbQEqq-45">
          <mxGeometry relative="1" as="geometry" />
        </mxCell>
        <mxCell id="wu20T2DJF-u065mbQEqq-39" value="&lt;div&gt;Employer&lt;/div&gt;&lt;div&gt;Counter-signs&lt;br&gt;&lt;/div&gt;" style="rhombus;whiteSpace=wrap;html=1;" vertex="1" parent="1">
          <mxGeometry x="307.5" y="680" width="105" height="80" as="geometry" />
        </mxCell>
        <mxCell id="wu20T2DJF-u065mbQEqq-50" style="edgeStyle=orthogonalEdgeStyle;rounded=0;orthogonalLoop=1;jettySize=auto;html=1;entryX=0.25;entryY=0.65;entryDx=0;entryDy=0;entryPerimeter=0;" edge="1" parent="1" source="wu20T2DJF-u065mbQEqq-44" target="wu20T2DJF-u065mbQEqq-51">
          <mxGeometry relative="1" as="geometry">
            <mxPoint x="260" y="850" as="targetPoint" />
            <Array as="points">
              <mxPoint x="260" y="820" />
              <mxPoint x="360" y="820" />
            </Array>
          </mxGeometry>
        </mxCell>
        <mxCell id="wu20T2DJF-u065mbQEqq-44" value="Yes" style="text;html=1;align=center;verticalAlign=middle;resizable=0;points=[];autosize=1;strokeColor=none;fillColor=none;fontSize=13;" vertex="1" parent="1">
          <mxGeometry x="240" y="705" width="40" height="30" as="geometry" />
        </mxCell>
        <mxCell id="wu20T2DJF-u065mbQEqq-49" style="edgeStyle=orthogonalEdgeStyle;rounded=0;orthogonalLoop=1;jettySize=auto;html=1;entryX=0.5;entryY=0;entryDx=0;entryDy=0;" edge="1" parent="1" source="wu20T2DJF-u065mbQEqq-45" target="wu20T2DJF-u065mbQEqq-48">
          <mxGeometry relative="1" as="geometry" />
        </mxCell>
        <mxCell id="wu20T2DJF-u065mbQEqq-45" value="No" style="text;html=1;align=center;verticalAlign=middle;resizable=0;points=[];autosize=1;strokeColor=none;fillColor=none;" vertex="1" parent="1">
          <mxGeometry x="440" y="705" width="40" height="30" as="geometry" />
        </mxCell>
        <mxCell id="wu20T2DJF-u065mbQEqq-52" style="edgeStyle=orthogonalEdgeStyle;rounded=0;orthogonalLoop=1;jettySize=auto;html=1;" edge="1" parent="1" source="wu20T2DJF-u065mbQEqq-48" target="wu20T2DJF-u065mbQEqq-51">
          <mxGeometry relative="1" as="geometry">
            <Array as="points">
              <mxPoint x="460" y="820" />
              <mxPoint x="360" y="820" />
            </Array>
          </mxGeometry>
        </mxCell>
        <mxCell id="wu20T2DJF-u065mbQEqq-48" value="Anvil Workflow Completed" style="whiteSpace=wrap;html=1;" vertex="1" parent="1">
          <mxGeometry x="380" y="760" width="160" height="40" as="geometry" />
        </mxCell>
        <mxCell id="wu20T2DJF-u065mbQEqq-51" value="" style="shape=waypoint;sketch=0;size=6;pointerEvents=1;points=[];fillColor=none;resizable=0;rotatable=0;perimeter=centerPerimeter;snapToPoint=1;" vertex="1" parent="1">
          <mxGeometry x="350" y="830" width="20" height="20" as="geometry" />
        </mxCell>
      </root>
    </mxGraphModel>
  </diagram>
</mxfile>
